<svg xmlns="http://www.w3.org/2000/svg" viewBox="0 0 101.86 48.71"><defs><style>.cls-1{fill:#ea5514;}</style></defs><g id="圖層_5" data-name="圖層 5"><path class="cls-1" d="M19.76,18.15H6.11A1.07,1.07,0,0,0,5,19.22V47.5A1.08,1.08,0,0,1,4,48.57H1.08A1.07,1.07,0,0,1,0,47.5V2.4A1.08,1.08,0,0,1,1.08,1.32H19.76A1.08,1.08,0,0,1,20.84,2.4V17.07A1.08,1.08,0,0,1,19.76,18.15ZM15.94,6.6h0a1.08,1.08,0,0,0-1.08-1.08H6.11A1.07,1.07,0,0,0,5,6.6H5A1.07,1.07,0,0,0,6.11,7.67h8.75A1.07,1.07,0,0,0,15.94,6.6Zm0,6.27v-.16a1.08,1.08,0,0,0-1.08-1.08H6.11A1.07,1.07,0,0,0,5,12.71v.16A1.07,1.07,0,0,0,6.11,14h8.75A1.08,1.08,0,0,0,15.94,12.87Zm29.46,32c0,2.41-1.74,3.61-5.2,3.61l-1.21,0a1.09,1.09,0,0,1-1-.71L37.37,46a1.09,1.09,0,0,0-1.61-.52,3.2,3.2,0,0,1-.87.38,17.63,17.63,0,0,1-4.14.31c-2.41,0-4-.28-4.9-.85a3.21,3.21,0,0,1-1.29-2.92V37.26a1.08,1.08,0,0,0-1.08-1.07H22.09a1.09,1.09,0,0,0-1.06.88q-1.49,6.7-10.09,10.11a1.08,1.08,0,0,1-1.31-.44L8.34,44.67a1.06,1.06,0,0,1,.55-1.57c3.53-1.27,5.86-3,7-5.34a1.08,1.08,0,0,0-1-1.57H13.06A1.08,1.08,0,0,1,12,35.11V28.62a1.07,1.07,0,0,0-1.49-1l-1.11.43a1.09,1.09,0,0,1-1.28-.43L6.91,25.78a1.08,1.08,0,0,1,.52-1.59,48.83,48.83,0,0,0,9.63-4.83,1.08,1.08,0,0,1,1.4.14L20,21.14a1.07,1.07,0,0,1-.18,1.62l-.11.08a1.07,1.07,0,0,0,.57,2H26a1.07,1.07,0,0,0,.45-2.05L26,22.56a1.07,1.07,0,0,1-.41-1.63l1.15-1.5A1.11,1.11,0,0,1,28,19.08a58.67,58.67,0,0,1,10.36,5.47,1.08,1.08,0,0,1,.23,1.55L37.3,27.71a1.08,1.08,0,0,1-1.47.22l-.69-.46a1.07,1.07,0,0,0-1.67.89v6.75a1.08,1.08,0,0,1-1.08,1.08H30.16a1.07,1.07,0,0,0-1.08,1.07v3.56c0,.75.72,1.13,2.15,1.13a2.56,2.56,0,0,0,2.24-.88A4.49,4.49,0,0,0,34,38.92,1.08,1.08,0,0,1,35.5,38l2.07.81a1.07,1.07,0,0,1,.69,1,14.1,14.1,0,0,1-.92,3.92,6.85,6.85,0,0,0,1.3.11c1.31,0,2-.42,2-1.27V19.22a1.07,1.07,0,0,0-1.07-1.07H25.85a1.08,1.08,0,0,1-1.08-1.08V2.4a1.08,1.08,0,0,1,1.08-1.08H44.32A1.08,1.08,0,0,1,45.4,2.4ZM28.89,31.13V29.75a1.07,1.07,0,0,0-1.08-1.07h-10a1.07,1.07,0,0,0-1.08,1.07v1.38A1.07,1.07,0,0,0,17.8,32.2h10A1.07,1.07,0,0,0,28.89,31.13ZM40.6,6.6h0a1.07,1.07,0,0,0-1.07-1.08H30.75A1.08,1.08,0,0,0,29.67,6.6h0a1.07,1.07,0,0,0,1.08,1.07h8.78A1.07,1.07,0,0,0,40.6,6.6Zm0,6.27v-.16a1.07,1.07,0,0,0-1.07-1.08H30.75a1.08,1.08,0,0,0-1.08,1.08v.16A1.08,1.08,0,0,0,30.75,14h8.78A1.07,1.07,0,0,0,40.6,12.87Z"/><path class="cls-1" d="M101.43,29.89l-1.1,2.69a.88.88,0,0,1-.92.53,87.33,87.33,0,0,1-20.93-5.37.86.86,0,0,0-.59,0,100.4,100.4,0,0,1-21.31,5.11.86.86,0,0,1-.91-.52l-1.18-2.79a.86.86,0,0,1,.71-1.18,87,87,0,0,0,15.84-3,.87.87,0,0,0,.24-1.54q-3-2.13-4.54-3.35a.86.86,0,0,0-1,0Q62.8,22.6,60,24.34a.86.86,0,0,1-1.09-.16l-2.06-2.26a.86.86,0,0,1,.2-1.32A51.23,51.23,0,0,0,69.74,10.26a.86.86,0,0,0-.65-1.43H60.93a.86.86,0,0,0-.86.86v5.9a.86.86,0,0,1-.86.86H56a.86.86,0,0,1-.86-.86V5.22A.87.87,0,0,1,56,4.36H73.48a.85.85,0,0,0,.76-1.25l-.49-.9A.86.86,0,0,1,74.3,1L77.79.14a.85.85,0,0,1,.93.38,30.53,30.53,0,0,1,1.66,3.32.88.88,0,0,0,.79.52H99.89a.86.86,0,0,1,.86.86V15.59a.85.85,0,0,1-.86.86H96.66a.85.85,0,0,1-.86-.86V9.69a.87.87,0,0,0-.86-.86H76c-.89,0-2.82,4.47-2.09,4.47H92.68a.87.87,0,0,1,.86.86v3a.86.86,0,0,1-.32.67A90.68,90.68,0,0,1,85,24a.85.85,0,0,0,.21,1.53,79.91,79.91,0,0,0,15.53,3.22A.86.86,0,0,1,101.43,29.89ZM94.11,48.71h-3.3a.86.86,0,0,1-.85-.86v-.33a.87.87,0,0,0-.86-.86H66.82a.86.86,0,0,0-.85.86v.33a.87.87,0,0,1-.86.86H61.79a.87.87,0,0,1-.86-.86V33.79a.86.86,0,0,1,.86-.86H94.11a.85.85,0,0,1,.85.86V47.85A.86.86,0,0,1,94.11,48.71ZM90,41.33V38.2a.86.86,0,0,0-.86-.85H66.82a.85.85,0,0,0-.85.85v3.13a.85.85,0,0,0,.85.86H89.1A.86.86,0,0,0,90,41.33ZM83.48,17.61H72.81a.86.86,0,0,0-.52,1.55,42.55,42.55,0,0,0,5.33,3.35.88.88,0,0,0,.82,0A55.42,55.42,0,0,0,84,19.18.86.86,0,0,0,83.48,17.61Z"/></g></svg>